# Blender v2.82 (sub 7) OBJ File: 'arrow.blend'
# www.blender.org
mtllib arrow.mtl
o Arrow_Cone
v 0.000000 -0.055112 0.610866
v 0.118159 -0.055012 0.599229
v 0.231777 -0.054714 0.564765
v 0.336488 -0.054231 0.508798
v 0.428268 -0.053581 0.433478
v 0.503590 -0.052789 0.341702
v 0.559559 -0.051886 0.236995
v 0.594025 -0.050905 0.123381
v 0.605662 -0.049886 0.005226
v 0.594025 -0.048866 -0.112928
v 0.559559 -0.047886 -0.226542
v 0.503590 -0.046982 -0.331249
v 0.428268 -0.046190 -0.423026
v 0.336488 -0.045540 -0.498345
v 0.231777 -0.045057 -0.554312
v 0.118159 -0.044760 -0.588776
v -0.000000 -0.044659 -0.600413
v -0.118159 -0.044760 -0.588776
v -0.231777 -0.045057 -0.554312
v -0.336488 -0.045540 -0.498344
v -0.428268 -0.046190 -0.423025
v -0.503590 -0.046982 -0.331249
v -0.559559 -0.047885 -0.226541
v -0.000000 -1.261165 -0.005226
v -0.594025 -0.048866 -0.112927
v -0.605662 -0.049886 0.005227
v -0.594024 -0.050905 0.123382
v -0.559559 -0.051886 0.236995
v -0.503589 -0.052789 0.341703
v -0.428267 -0.053581 0.433479
v -0.336487 -0.054231 0.508798
v -0.231776 -0.054714 0.564765
v -0.118158 -0.055012 0.599229
v -0.000000 -0.078627 -0.291397
v 0.000000 0.504167 -0.291397
v 0.056849 -0.078627 -0.285798
v 0.056849 0.504167 -0.285798
v 0.111513 -0.078627 -0.269216
v 0.111513 0.504167 -0.269216
v 0.161891 -0.078627 -0.242288
v 0.161891 0.504166 -0.242288
v 0.206049 -0.078627 -0.206049
v 0.206049 0.504166 -0.206049
v 0.242288 -0.078627 -0.161891
v 0.242288 0.504167 -0.161891
v 0.269216 -0.078627 -0.111513
v 0.269216 0.504167 -0.111513
v 0.285798 -0.078627 -0.056849
v 0.285798 0.504167 -0.056849
v 0.291397 -0.078627 -0.000000
v 0.291397 0.504166 -0.000000
v 0.285798 -0.078627 0.056849
v 0.285798 0.504167 0.056849
v 0.269216 -0.078627 0.111513
v 0.269216 0.504166 0.111513
v 0.242288 -0.078627 0.161891
v 0.242288 0.504167 0.161891
v 0.206049 -0.078627 0.206049
v 0.206049 0.504166 0.206049
v 0.161891 -0.078627 0.242288
v 0.161891 0.504166 0.242288
v 0.111513 -0.078627 0.269216
v 0.111513 0.504167 0.269216
v 0.056849 -0.078627 0.285798
v 0.056849 0.504167 0.285798
v -0.000000 -0.078627 0.291397
v -0.000000 0.504167 0.291397
v -0.056849 -0.078627 0.285798
v -0.056849 0.504167 0.285798
v -0.111513 -0.078627 0.269216
v -0.111513 0.504166 0.269216
v -0.161892 -0.078627 0.242288
v -0.161892 0.504166 0.242288
v -0.206049 -0.078627 0.206049
v -0.206049 0.504167 0.206049
v -0.242288 -0.078627 0.161891
v -0.242288 0.504167 0.161891
v -0.269216 -0.078627 0.111513
v -0.269216 0.504167 0.111513
v -0.285798 -0.078627 0.056848
v -0.285798 0.504167 0.056848
v -0.291397 -0.078627 -0.000000
v -0.291397 0.504167 -0.000000
v -0.285798 -0.078627 -0.056849
v -0.285798 0.504167 -0.056849
v -0.269215 -0.078627 -0.111513
v -0.269215 0.504167 -0.111513
v -0.242287 -0.078627 -0.161892
v -0.242287 0.504167 -0.161892
v -0.206048 -0.078627 -0.206049
v -0.206048 0.504167 -0.206049
v -0.161891 -0.078627 -0.242288
v -0.161891 0.504167 -0.242288
v -0.111512 -0.078627 -0.269216
v -0.111512 0.504167 -0.269216
v -0.056848 -0.078627 -0.285798
v -0.056848 0.504167 -0.285798
v -0.000000 -0.078627 -0.291397
v 0.056849 -0.078627 -0.285798
v 0.111513 -0.078627 -0.269216
v 0.161891 -0.078627 -0.242288
v 0.206049 -0.078627 -0.206049
v 0.242288 -0.078627 -0.161891
v 0.269216 -0.078627 -0.111513
v 0.285798 -0.078627 -0.056849
v 0.291397 -0.078627 -0.000000
v 0.285798 -0.078627 0.056849
v 0.269216 -0.078627 0.111513
v 0.242288 -0.078627 0.161891
v 0.206049 -0.078627 0.206049
v 0.161891 -0.078627 0.242288
v 0.111513 -0.078627 0.269216
v 0.056849 -0.078627 0.285798
v -0.000000 -0.078627 0.291397
v -0.056849 -0.078627 0.285798
v -0.111513 -0.078627 0.269216
v -0.161892 -0.078627 0.242288
v -0.206049 -0.078627 0.206049
v -0.242288 -0.078627 0.161891
v -0.269216 -0.078627 0.111513
v -0.285798 -0.078627 0.056848
v -0.291397 -0.078627 -0.000000
v -0.285798 -0.078627 -0.056849
v -0.269215 -0.078627 -0.111513
v -0.242287 -0.078627 -0.161892
v -0.206048 -0.078627 -0.206049
v -0.161891 -0.078627 -0.242288
v -0.111512 -0.078627 -0.269216
v -0.056848 -0.078627 -0.285798
v -0.000000 1.137172 -0.291397
v 0.056849 1.137172 -0.285798
v 0.111513 1.137172 -0.269216
v 0.161891 1.137172 -0.242288
v 0.206049 1.137172 -0.206049
v 0.242288 1.137172 -0.161891
v 0.269216 1.137172 -0.111513
v 0.285798 1.137172 -0.056849
v 0.291397 1.137172 -0.000000
v 0.285798 1.137172 0.056849
v 0.269216 1.137172 0.111513
v 0.242288 1.137172 0.161891
v 0.206049 1.137172 0.206049
v 0.161891 1.137172 0.242288
v 0.111513 1.137172 0.269216
v 0.056849 1.137172 0.285798
v -0.000000 1.137172 0.291397
v -0.056849 1.137172 0.285798
v -0.111513 1.137172 0.269216
v -0.161892 1.137172 0.242288
v -0.206049 1.137172 0.206049
v -0.242288 1.137172 0.161891
v -0.269216 1.137172 0.111513
v -0.285798 1.137172 0.056848
v -0.291397 1.137172 -0.000000
v -0.285798 1.137172 -0.056849
v -0.269215 1.137172 -0.111513
v -0.242287 1.137172 -0.161892
v -0.206048 1.137172 -0.206049
v -0.161891 1.137172 -0.242288
v -0.111512 1.137172 -0.269216
v -0.056848 1.137172 -0.285798
vt 0.250000 0.490000
vt 0.250000 0.250000
vt 0.296822 0.485388
vt 0.341844 0.471731
vt 0.383337 0.449553
vt 0.419706 0.419706
vt 0.449553 0.383337
vt 0.471731 0.341844
vt 0.485388 0.296822
vt 0.490000 0.250000
vt 0.485388 0.203178
vt 0.471731 0.158156
vt 0.449553 0.116663
vt 0.419706 0.080294
vt 0.383337 0.050447
vt 0.341844 0.028269
vt 0.296822 0.014612
vt 0.250000 0.010000
vt 0.203178 0.014612
vt 0.158156 0.028269
vt 0.116663 0.050447
vt 0.080294 0.080294
vt 0.050447 0.116663
vt 0.028269 0.158156
vt 0.014611 0.203179
vt 0.010000 0.250000
vt 0.014612 0.296822
vt 0.028269 0.341844
vt 0.050447 0.383337
vt 0.080295 0.419706
vt 0.116663 0.449553
vt 0.158156 0.471731
vt 0.203179 0.485389
vt 0.750000 0.490000
vt 0.796822 0.485388
vt 0.841844 0.471731
vt 0.883337 0.449553
vt 0.919706 0.419706
vt 0.949553 0.383337
vt 0.971731 0.341844
vt 0.985388 0.296822
vt 0.990000 0.250000
vt 0.985388 0.203178
vt 0.971731 0.158156
vt 0.949553 0.116663
vt 0.919706 0.080294
vt 0.883337 0.050447
vt 0.841844 0.028269
vt 0.796822 0.014612
vt 0.750000 0.010000
vt 0.703178 0.014612
vt 0.658156 0.028269
vt 0.616663 0.050447
vt 0.580294 0.080294
vt 0.550447 0.116663
vt 0.528269 0.158156
vt 0.514611 0.203179
vt 0.510000 0.250000
vt 0.514612 0.296822
vt 0.528269 0.341844
vt 0.550447 0.383337
vt 0.580295 0.419706
vt 0.616663 0.449553
vt 0.658156 0.471731
vt 0.703179 0.485389
vt 1.000000 0.500000
vt 1.000000 1.000000
vt 0.968750 1.000000
vt 0.968750 0.500000
vt 0.937500 1.000000
vt 0.937500 0.500000
vt 0.906250 1.000000
vt 0.906250 0.500000
vt 0.875000 1.000000
vt 0.875000 0.500000
vt 0.843750 1.000000
vt 0.843750 0.500000
vt 0.812500 1.000000
vt 0.812500 0.500000
vt 0.781250 1.000000
vt 0.781250 0.500000
vt 0.750000 1.000000
vt 0.750000 0.500000
vt 0.718750 1.000000
vt 0.718750 0.500000
vt 0.687500 1.000000
vt 0.687500 0.500000
vt 0.656250 1.000000
vt 0.656250 0.500000
vt 0.625000 1.000000
vt 0.625000 0.500000
vt 0.593750 1.000000
vt 0.593750 0.500000
vt 0.562500 1.000000
vt 0.562500 0.500000
vt 0.531250 1.000000
vt 0.531250 0.500000
vt 0.500000 1.000000
vt 0.500000 0.500000
vt 0.468750 1.000000
vt 0.468750 0.500000
vt 0.437500 1.000000
vt 0.437500 0.500000
vt 0.406250 1.000000
vt 0.406250 0.500000
vt 0.375000 1.000000
vt 0.375000 0.500000
vt 0.343750 1.000000
vt 0.343750 0.500000
vt 0.312500 1.000000
vt 0.312500 0.500000
vt 0.281250 1.000000
vt 0.281250 0.500000
vt 0.250000 1.000000
vt 0.250000 0.500000
vt 0.218750 1.000000
vt 0.218750 0.500000
vt 0.187500 1.000000
vt 0.187500 0.500000
vt 0.156250 1.000000
vt 0.156250 0.500000
vt 0.125000 1.000000
vt 0.125000 0.500000
vt 0.093750 1.000000
vt 0.093750 0.500000
vt 0.062500 1.000000
vt 0.062500 0.500000
vt 0.750000 1.000000
vt 0.718750 1.000000
vt 0.031250 1.000000
vt 0.031250 0.500000
vt 0.000000 1.000000
vt 0.000000 0.500000
vt 0.812500 0.500000
vt 0.843750 0.500000
vt 0.750000 0.490000
vt 0.796822 0.485388
vt 0.841844 0.471731
vt 0.883337 0.449553
vt 0.919706 0.419706
vt 0.949553 0.383337
vt 0.971731 0.341844
vt 0.985388 0.296822
vt 0.990000 0.250000
vt 0.985388 0.203178
vt 0.971731 0.158156
vt 0.949553 0.116663
vt 0.919706 0.080294
vt 0.883337 0.050447
vt 0.841844 0.028269
vt 0.796822 0.014612
vt 0.750000 0.010000
vt 0.703178 0.014612
vt 0.658156 0.028269
vt 0.616663 0.050447
vt 0.580294 0.080294
vt 0.550447 0.116663
vt 0.528269 0.158156
vt 0.514611 0.203179
vt 0.510000 0.250000
vt 0.514612 0.296822
vt 0.528269 0.341844
vt 0.550447 0.383337
vt 0.580295 0.419706
vt 0.616663 0.449553
vt 0.658156 0.471731
vt 0.703179 0.485389
vt 0.531250 0.500000
vt 0.562500 0.500000
vt 0.250000 0.500000
vt 0.281250 0.500000
vt 0.937500 0.500000
vt 0.968750 0.500000
vt 0.656250 0.500000
vt 0.687500 0.500000
vt 0.375000 0.500000
vt 0.406250 0.500000
vt 0.093750 0.500000
vt 0.125000 0.500000
vt 0.781250 0.500000
vt 0.500000 0.500000
vt 0.218750 0.500000
vt 0.906250 0.500000
vt 0.625000 0.500000
vt 0.343750 0.500000
vt 0.062500 0.500000
vt 0.750000 0.500000
vt 0.468750 0.500000
vt 0.187500 0.500000
vt 0.875000 0.500000
vt 0.593750 0.500000
vt 0.312500 0.500000
vt 0.031250 0.500000
vt 0.718750 0.500000
vt 0.437500 0.500000
vt 0.156250 0.500000
vt 1.000000 0.500000
vt 0.000000 0.500000
vt 0.296822 0.485388
vt 0.250000 0.490000
vt 0.203179 0.485389
vt 0.158156 0.471731
vt 0.116663 0.449553
vt 0.080295 0.419706
vt 0.050447 0.383337
vt 0.028269 0.341844
vt 0.014612 0.296822
vt 0.010000 0.250000
vt 0.014611 0.203179
vt 0.028269 0.158156
vt 0.050447 0.116663
vt 0.080294 0.080294
vt 0.116663 0.050447
vt 0.158156 0.028269
vt 0.203178 0.014612
vt 0.250000 0.010000
vt 0.296822 0.014612
vt 0.341844 0.028269
vt 0.383337 0.050447
vt 0.419706 0.080294
vt 0.449553 0.116663
vt 0.471731 0.158156
vt 0.485388 0.203178
vt 0.490000 0.250000
vt 0.485388 0.296822
vt 0.471731 0.341844
vt 0.449553 0.383337
vt 0.419706 0.419706
vt 0.383337 0.449553
vt 0.341844 0.471731
vt 0.468750 1.000000
vt 0.437500 1.000000
vt 0.187500 1.000000
vt 0.156250 1.000000
vt 0.875000 1.000000
vt 0.843750 1.000000
vt 0.593750 1.000000
vt 0.562500 1.000000
vt 0.312500 1.000000
vt 0.281250 1.000000
vt 1.000000 1.000000
vt 0.968750 1.000000
vt 0.031250 1.000000
vt 0.000000 1.000000
vt 0.687500 1.000000
vt 0.406250 1.000000
vt 0.125000 1.000000
vt 0.812500 1.000000
vt 0.531250 1.000000
vt 0.250000 1.000000
vt 0.937500 1.000000
vt 0.656250 1.000000
vt 0.375000 1.000000
vt 0.093750 1.000000
vt 0.781250 1.000000
vt 0.500000 1.000000
vt 0.218750 1.000000
vt 0.906250 1.000000
vt 0.625000 1.000000
vt 0.343750 1.000000
vt 0.062500 1.000000
vn 0.0878 -0.4532 0.8871
vn 0.2599 -0.4529 0.8529
vn 0.4220 -0.4523 0.7857
vn 0.5680 -0.4514 0.6882
vn 0.6921 -0.4504 0.5641
vn 0.7896 -0.4491 0.4182
vn 0.8567 -0.4477 0.2560
vn 0.8910 -0.4462 0.0839
vn 0.8910 -0.4447 -0.0916
vn 0.8567 -0.4432 -0.2637
vn 0.7896 -0.4418 -0.4259
vn 0.6921 -0.4406 -0.5718
vn 0.5680 -0.4395 -0.6959
vn 0.4220 -0.4387 -0.7934
vn 0.2599 -0.4381 -0.8605
vn 0.0878 -0.4378 -0.8948
vn -0.0878 -0.4378 -0.8948
vn -0.2599 -0.4381 -0.8605
vn -0.4220 -0.4387 -0.7934
vn -0.5680 -0.4395 -0.6959
vn -0.6921 -0.4406 -0.5718
vn -0.7896 -0.4418 -0.4259
vn -0.8567 -0.4432 -0.2637
vn -0.8910 -0.4447 -0.0916
vn -0.8910 -0.4462 0.0839
vn -0.8567 -0.4477 0.2560
vn -0.7896 -0.4491 0.4182
vn -0.6921 -0.4504 0.5641
vn -0.5680 -0.4514 0.6882
vn -0.4220 -0.4523 0.7857
vn -0.2599 -0.4529 0.8529
vn -0.0878 -0.4532 0.8871
vn 0.0000 1.0000 0.0086
vn 0.0980 0.0000 -0.9952
vn 0.2903 -0.0000 -0.9569
vn 0.4714 -0.0000 -0.8819
vn 0.6344 -0.0000 -0.7730
vn 0.7730 -0.0000 -0.6344
vn 0.8819 -0.0000 -0.4714
vn 0.9569 0.0000 -0.2903
vn 0.9952 -0.0000 -0.0980
vn 0.9952 -0.0000 0.0980
vn 0.9569 0.0000 0.2903
vn 0.8819 0.0000 0.4714
vn 0.7730 -0.0000 0.6344
vn 0.6344 -0.0000 0.7730
vn 0.4714 0.0000 0.8819
vn 0.2903 0.0000 0.9569
vn 0.0980 0.0000 0.9952
vn -0.0980 -0.0000 0.9952
vn -0.2903 -0.0000 0.9569
vn -0.4714 0.0000 0.8819
vn -0.6344 0.0000 0.7730
vn -0.7730 0.0000 0.6344
vn -0.8819 0.0000 0.4714
vn -0.9569 0.0000 0.2903
vn -0.9952 0.0000 0.0980
vn -0.9952 -0.0000 -0.0980
vn -0.9569 0.0000 -0.2903
vn -0.8819 0.0000 -0.4714
vn -0.7730 0.0000 -0.6344
vn -0.6344 -0.0000 -0.7730
vn -0.4714 -0.0000 -0.8819
vn -0.2903 -0.0000 -0.9569
vn -0.0980 -0.0000 -0.9952
vn 0.0000 0.0000 1.0000
vn -0.0000 -1.0000 -0.0000
vn -0.0000 1.0000 -0.0000
usemtl Material
s off
f 1/1/1 24/2/1 2/3/1
f 2/3/2 24/2/2 3/4/2
f 3/4/3 24/2/3 4/5/3
f 4/5/4 24/2/4 5/6/4
f 5/6/5 24/2/5 6/7/5
f 6/7/6 24/2/6 7/8/6
f 7/8/7 24/2/7 8/9/7
f 8/9/8 24/2/8 9/10/8
f 9/10/9 24/2/9 10/11/9
f 10/11/10 24/2/10 11/12/10
f 11/12/11 24/2/11 12/13/11
f 12/13/12 24/2/12 13/14/12
f 13/14/13 24/2/13 14/15/13
f 14/15/14 24/2/14 15/16/14
f 15/16/15 24/2/15 16/17/15
f 16/17/16 24/2/16 17/18/16
f 17/18/17 24/2/17 18/19/17
f 18/19/18 24/2/18 19/20/18
f 19/20/19 24/2/19 20/21/19
f 20/21/20 24/2/20 21/22/20
f 21/22/21 24/2/21 22/23/21
f 22/23/22 24/2/22 23/24/22
f 23/24/23 24/2/23 25/25/23
f 25/25/24 24/2/24 26/26/24
f 26/26/25 24/2/25 27/27/25
f 27/27/26 24/2/26 28/28/26
f 28/28/27 24/2/27 29/29/27
f 29/29/28 24/2/28 30/30/28
f 30/30/29 24/2/29 31/31/29
f 31/31/30 24/2/30 32/32/30
f 32/32/31 24/2/31 33/33/31
f 33/33/32 24/2/32 1/1/32
f 1/34/33 2/35/33 3/36/33 4/37/33 5/38/33 6/39/33 7/40/33 8/41/33 9/42/33 10/43/33 11/44/33 12/45/33 13/46/33 14/47/33 15/48/33 16/49/33 17/50/33 18/51/33 19/52/33 20/53/33 21/54/33 22/55/33 23/56/33 25/57/33 26/58/33 27/59/33 28/60/33 29/61/33 30/62/33 31/63/33 32/64/33 33/65/33
f 34/66/34 35/67/34 37/68/34 36/69/34
f 36/69/35 37/68/35 39/70/35 38/71/35
f 38/71/36 39/70/36 41/72/36 40/73/36
f 40/73/37 41/72/37 43/74/37 42/75/37
f 42/75/38 43/74/38 45/76/38 44/77/38
f 44/77/39 45/76/39 47/78/39 46/79/39
f 46/79/40 47/78/40 49/80/40 48/81/40
f 48/81/41 49/80/41 51/82/41 50/83/41
f 50/83/42 51/82/42 53/84/42 52/85/42
f 52/85/43 53/84/43 55/86/43 54/87/43
f 54/87/44 55/86/44 57/88/44 56/89/44
f 56/89/45 57/88/45 59/90/45 58/91/45
f 58/91/46 59/90/46 61/92/46 60/93/46
f 60/93/47 61/92/47 63/94/47 62/95/47
f 62/95/48 63/94/48 65/96/48 64/97/48
f 64/97/49 65/96/49 67/98/49 66/99/49
f 66/99/50 67/98/50 69/100/50 68/101/50
f 68/101/51 69/100/51 71/102/51 70/103/51
f 70/103/52 71/102/52 73/104/52 72/105/52
f 72/105/53 73/104/53 75/106/53 74/107/53
f 74/107/54 75/106/54 77/108/54 76/109/54
f 76/109/55 77/108/55 79/110/55 78/111/55
f 78/111/56 79/110/56 81/112/56 80/113/56
f 80/113/57 81/112/57 83/114/57 82/115/57
f 82/115/58 83/114/58 85/116/58 84/117/58
f 84/117/59 85/116/59 87/118/59 86/119/59
f 86/119/60 87/118/60 89/120/60 88/121/60
f 88/121/61 89/120/61 91/122/61 90/123/61
f 90/123/62 91/122/62 93/124/62 92/125/62
f 92/125/63 93/124/63 95/126/63 94/127/63
f 53/84/42 51/82/42 138/128/42 139/129/42
f 94/127/64 95/126/64 97/130/64 96/131/64
f 96/131/65 97/130/65 35/132/65 34/133/65
f 44/77/66 46/79/66 104/134/66 103/135/66
f 98/136/67 99/137/67 100/138/67 101/139/67 102/140/67 103/141/67 104/142/67 105/143/67 106/144/67 107/145/67 108/146/67 109/147/67 110/148/67 111/149/67 112/150/67 113/151/67 114/152/67 115/153/67 116/154/67 117/155/67 118/156/67 119/157/67 120/158/67 121/159/67 122/160/67 123/161/67 124/162/67 125/163/67 126/164/67 127/165/67 128/166/67 129/167/67
f 62/95/66 64/97/66 113/168/66 112/169/66
f 80/113/66 82/115/66 122/170/66 121/171/66
f 36/69/66 38/71/66 100/172/66 99/173/66
f 54/87/66 56/89/66 109/174/66 108/175/66
f 72/105/66 74/107/66 118/176/66 117/177/66
f 90/123/66 92/125/66 127/178/66 126/179/66
f 46/79/66 48/81/66 105/180/66 104/134/66
f 64/97/66 66/99/66 114/181/66 113/168/66
f 82/115/66 84/117/66 123/182/66 122/170/66
f 38/71/66 40/73/66 101/183/66 100/172/66
f 56/89/66 58/91/66 110/184/66 109/174/66
f 74/107/66 76/109/66 119/185/66 118/176/66
f 92/125/66 94/127/66 128/186/66 127/178/66
f 48/81/66 50/83/66 106/187/66 105/180/66
f 66/99/66 68/101/66 115/188/66 114/181/66
f 84/117/66 86/119/66 124/189/66 123/182/66
f 40/73/66 42/75/66 102/190/66 101/183/66
f 58/91/66 60/93/66 111/191/66 110/184/66
f 76/109/66 78/111/66 120/192/66 119/185/66
f 94/127/66 96/131/66 129/193/66 128/186/66
f 50/83/66 52/85/66 107/194/66 106/187/66
f 68/101/66 70/103/66 116/195/66 115/188/66
f 86/119/66 88/121/66 125/196/66 124/189/66
f 42/75/66 44/77/66 103/135/66 102/190/66
f 60/93/66 62/95/66 112/169/66 111/191/66
f 78/111/66 80/113/66 121/171/66 120/192/66
f 34/66/66 36/69/66 99/173/66 98/197/66
f 96/131/66 34/133/66 98/198/66 129/193/66
f 52/85/66 54/87/66 108/175/66 107/194/66
f 70/103/66 72/105/66 117/177/66 116/195/66
f 88/121/66 90/123/66 126/179/66 125/196/66
f 131/199/68 130/200/68 161/201/68 160/202/68 159/203/68 158/204/68 157/205/68 156/206/68 155/207/68 154/208/68 153/209/68 152/210/68 151/211/68 150/212/68 149/213/68 148/214/68 147/215/68 146/216/68 145/217/68 144/218/68 143/219/68 142/220/68 141/221/68 140/222/68 139/223/68 138/224/68 137/225/68 136/226/68 135/227/68 134/228/68 133/229/68 132/230/68
f 71/102/51 69/100/51 147/231/51 148/232/51
f 89/120/60 87/118/60 156/233/60 157/234/60
f 45/76/38 43/74/38 134/235/38 135/236/38
f 63/94/47 61/92/47 143/237/47 144/238/47
f 81/112/56 79/110/56 152/239/56 153/240/56
f 37/68/34 35/67/34 130/241/34 131/242/34
f 35/132/65 97/130/65 161/243/65 130/244/65
f 55/86/43 53/84/43 139/129/43 140/245/43
f 73/104/52 71/102/52 148/232/52 149/246/52
f 91/122/61 89/120/61 157/234/61 158/247/61
f 47/78/39 45/76/39 135/236/39 136/248/39
f 65/96/48 63/94/48 144/238/48 145/249/48
f 83/114/57 81/112/57 153/240/57 154/250/57
f 39/70/35 37/68/35 131/242/35 132/251/35
f 57/88/44 55/86/44 140/245/44 141/252/44
f 75/106/53 73/104/53 149/246/53 150/253/53
f 93/124/62 91/122/62 158/247/62 159/254/62
f 49/80/40 47/78/40 136/248/40 137/255/40
f 67/98/49 65/96/49 145/249/49 146/256/49
f 85/116/58 83/114/58 154/250/58 155/257/58
f 41/72/36 39/70/36 132/251/36 133/258/36
f 59/90/45 57/88/45 141/252/45 142/259/45
f 77/108/54 75/106/54 150/253/54 151/260/54
f 95/126/63 93/124/63 159/254/63 160/261/63
f 51/82/41 49/80/41 137/255/41 138/128/41
f 69/100/50 67/98/50 146/256/50 147/231/50
f 87/118/59 85/116/59 155/257/59 156/233/59
f 43/74/37 41/72/37 133/258/37 134/235/37
f 61/92/46 59/90/46 142/259/46 143/237/46
f 79/110/55 77/108/55 151/260/55 152/239/55
f 97/130/64 95/126/64 160/261/64 161/243/64
