# Blender v2.82 (sub 7) OBJ File: 'porteRDC.blend'
# www.blender.org
mtllib ferry_porteRDC.mtl
o PorteRDC_Cylinder.019
v -0.032057 -1.914474 0.572713
v -0.032850 -2.212243 -0.993530
v -0.032057 2.437421 0.572713
v -0.028605 0.537899 -0.151888
v -5.268482 -1.923524 0.572715
v -4.973227 -2.218560 -0.993527
v -6.889481 2.428371 0.572715
v -6.056572 0.531582 -0.151886
v 5.280141 -1.923524 0.572714
v 4.984489 -2.218560 -0.993528
v 6.939942 2.428371 0.572714
v 6.108760 0.531582 -0.151887
vt 0.828125 0.500000
vt 0.843750 0.500000
vt 0.843750 0.500000
vt 0.828125 0.500000
vt 0.828125 0.500000
vt 0.828125 0.500000
vt 0.000000 0.000000
vt 0.000000 0.000000
vt 0.000000 0.000000
vt 0.000000 0.000000
vt 0.000000 0.000000
vt 0.000000 0.000000
vt 0.000000 0.000000
vt 0.000000 0.000000
vt 0.000000 0.000000
vt 0.828125 0.500000
vt 0.843750 0.500000
vt 0.828125 0.500000
vt 0.828125 0.500000
vt 0.828125 0.500000
vn 0.0003 -0.2926 0.9562
vn 0.0003 0.2926 -0.9562
vn -0.0000 -0.0000 -1.0000
vn 0.0004 -0.3566 0.9343
vn -0.0000 0.0000 1.0000
vn 0.0004 0.3566 -0.9343
vn -0.0015 -0.9825 0.1861
vn -0.0015 0.9825 -0.1861
vn 0.9314 0.3469 0.1102
vn 0.9288 -0.3543 -0.1086
usemtl Porte
s off
f 6/1/1 2/2/1 4/3/1 8/4/1
f 10/5/2 2/2/2 4/3/2 12/6/2
f 1/7/3 5/8/3 7/9/3 3/10/3
f 3/10/4 7/9/4 8/11/4 4/12/4
f 1/7/5 9/13/5 11/14/5 3/10/5
f 3/10/6 11/14/6 12/15/6 4/12/6
f 2/2/7 10/5/7 9/16/7 1/17/7
f 2/2/8 6/1/8 5/18/8 1/17/8
f 5/18/9 6/1/9 7/19/9
f 9/16/10 10/5/10 11/20/10
