# Blender v2.82 (sub 7) OBJ File: 'barrier.blend'
# www.blender.org
mtllib barrier.mtl
o Bar_Cube.001
v -2.000000 -0.080000 0.040000
v -2.000000 0.080000 0.040000
v -2.000000 -0.080000 -0.040000
v -2.000000 0.080000 -0.040000
v 2.000000 -0.080000 0.040000
v 2.000000 0.080000 0.040000
v 2.000000 -0.080000 -0.040000
v 2.000000 0.080000 -0.040000
vt 0.375000 0.000000
vt 0.625000 0.000000
vt 0.625000 0.250000
vt 0.375000 0.250000
vt 0.299035 0.578687
vt 0.296313 0.174035
vt 0.700965 0.171313
vt 0.703687 0.575965
vt 0.375000 0.500000
vt 0.625000 0.500000
vt 0.625000 0.750000
vt 0.375000 0.750000
vt 0.295971 0.704029
vt 0.295971 0.295971
vt 0.704029 0.295971
vt 0.704029 0.704029
vt 0.125000 0.500000
vt 0.125000 0.750000
vt 0.875000 0.500000
vt 0.875000 0.750000
vn -1.0000 0.0000 0.0000
vn 0.0000 0.0000 -1.0000
vn 1.0000 0.0000 0.0000
vn 0.0000 0.0000 1.0000
vn 0.0000 -1.0000 0.0000
vn 0.0000 1.0000 0.0000
usemtl stop
s off
f 1/1/1 2/2/1 4/3/1 3/4/1
f 3/5/2 4/6/2 8/7/2 7/8/2
f 7/9/3 8/10/3 6/11/3 5/12/3
f 5/13/4 6/14/4 2/15/4 1/16/4
f 3/17/5 7/9/5 5/12/5 1/18/5
f 8/10/6 4/19/6 2/20/6 6/11/6
