# Blender v2.82 (sub 7) OBJ File: 'car barrier main.blend'
# www.blender.org
mtllib car barrier main.mtl
o Main_Cube
v 1.200000 5.000000 -1.200000
v 1.200000 0.000000 -1.200000
v 1.200000 5.000000 1.200000
v 1.200000 0.000000 1.200000
v -1.200000 5.000000 -1.200000
v -1.200000 0.000000 -1.200000
v -1.200000 5.000000 1.200000
v -1.200000 0.000000 1.200000
v -1.200000 5.000000 1.200000
v 1.200000 5.000000 1.200000
v -1.200000 5.000000 1.200000
v 1.200000 5.000000 -1.200000
v -1.200000 5.000000 -1.200000
v 1.200000 6.250000 1.200000
v -1.200000 6.250000 1.200000
v 1.200000 6.250000 -1.200000
v -1.200000 6.250000 -1.200000
v 1.200000 5.000000 -1.200000
v 1.200000 5.000000 1.200000
v 1.200000 6.250000 -1.200000
v 1.200000 6.250000 1.200000
v 1.320000 5.000000 -1.200000
v 1.320000 5.000000 1.200000
v 1.320000 6.250000 -1.200000
v 1.320000 6.250000 1.200000
v -1.200000 5.000000 -1.320000
v 1.200000 5.000000 -1.320000
v -1.200000 6.250000 -1.320000
v 1.200000 6.250000 -1.320000
v -1.320000 5.000000 1.200000
v -1.320000 5.000000 -1.200000
v -1.320000 6.250000 1.200000
v -1.320000 6.250000 -1.200000
v 1.200000 5.000000 1.200000
v -1.200000 5.000000 1.200000
v 1.200000 6.250000 1.200000
v -1.200000 6.250000 1.200000
v 1.200000 5.000000 1.200000
v -1.200000 5.000000 1.200000
v 1.200000 6.250000 1.200000
v -1.200000 6.250000 1.200000
v -1.400000 1.000000 1.000000
v -1.400000 5.000000 1.000000
v -1.400000 1.000000 -1.000000
v -1.400000 5.000000 -1.000000
v -1.200000 1.000000 1.000000
v -1.200000 5.000000 1.000000
v -1.200000 1.000000 -1.000000
v -1.200000 5.000000 -1.000000
v -2.000000 -0.050000 2.000000
v -2.000000 0.050000 2.000000
v -2.000000 -0.050000 -2.000000
v -2.000000 0.050000 -2.000000
v 2.000000 -0.050000 2.000000
v 2.000000 0.050000 2.000000
v 2.000000 -0.050000 -2.000000
v 2.000000 0.050000 -2.000000
vt 0.000016 0.000016
vt 0.999984 0.000016
vt 0.999984 0.025752
vt 0.000016 0.025751
vt 0.000082 0.999917
vt 0.000082 0.000082
vt 0.678096 0.000082
vt 0.678096 0.999918
vt 0.678096 0.000082
vt 0.678096 0.999918
vt 0.000082 0.999918
vt 0.000082 0.000082
vt 0.203711 -0.008563
vt 0.881725 -0.008563
vt 0.881725 0.991272
vt 0.203711 0.991272
vt 0.000082 0.999917
vt 0.000082 0.000082
vt 0.678096 0.000082
vt 0.678096 0.999918
vt 0.678096 0.000082
vt 0.678096 0.999918
vt 0.000082 0.999918
vt 0.000082 0.000082
vt 0.999984 0.025752
vt 0.000016 0.025752
vt 0.000016 0.000016
vt 0.999984 0.000016
vt 0.625000 0.250000
vt 0.625000 0.000000
vt 0.625000 0.000000
vt 0.625000 0.250000
vt 0.625000 0.750000
vt 0.625000 0.500000
vt 0.625000 0.500000
vt 0.625000 0.750000
vt 0.000011 0.999989
vt 0.000011 0.000011
vt 0.011845 0.000011
vt 0.011845 0.999989
vt 0.625000 0.750000
vt 0.625000 0.750000
vt 0.625000 0.750000
vt 0.625000 0.500000
vt 0.999984 0.025752
vt 0.000016 0.025751
vt 0.000016 0.000016
vt 0.999984 0.000016
vt 0.625000 0.500000
vt 0.625000 0.500000
vt 0.011845 0.000011
vt 0.011845 0.999989
vt 0.625000 1.000000
vt 0.625000 1.000000
vt 0.625000 1.000000
vt 0.625000 1.000000
vt 0.999984 0.000016
vt 0.999984 0.025752
vt 0.000016 0.025751
vt 0.625000 0.750000
vt 0.625000 1.000000
vt 0.625000 0.750000
vt 0.625000 0.750000
vt 0.625000 1.000000
vt 0.999984 0.025752
vt 0.000016 0.025751
vt 0.625000 1.000000
vt 0.625000 1.000000
vt 0.279655 -0.568359
vt 0.541506 -0.568359
vt 0.541506 -0.194071
vt 0.279655 -0.194071
vt 0.033923 0.000018
vt 0.033923 0.999982
vt 0.000018 0.999982
vt 0.000019 0.000018
vt 0.625000 0.750000
vt 0.625000 0.750000
vt 0.625000 0.500000
vt 0.625000 0.500000
vt 0.625000 0.500000
vt 0.625000 0.250000
vt 0.625000 0.250000
vt 0.625000 0.500000
vt 0.625000 0.250000
vt 0.033923 0.000018
vt 0.033923 0.999982
vt 0.000018 0.999982
vt 0.000019 0.000018
vt 0.625000 0.250000
vt 0.625000 0.000000
vt 0.625000 0.000000
vt 0.625000 0.250000
vt 0.033923 0.000018
vt 0.033923 0.999982
vt 0.000018 0.999982
vt 0.000019 0.000018
vt 0.375000 0.000000
vt 0.625000 0.000000
vt 0.625000 0.250000
vt 0.375000 0.250000
vt 0.625000 0.500000
vt 0.375000 0.500000
vt 0.625000 0.750000
vt 0.375000 0.750000
vt 0.625000 1.000000
vt 0.375000 1.000000
vt 0.125000 0.500000
vt 0.125000 0.750000
vt 0.875000 0.500000
vt 0.875000 0.750000
vt 0.380104 0.565453
vt 0.630104 0.565453
vt 0.630104 0.815453
vt 0.380104 0.815453
vt 0.506096 0.253424
vt 0.756096 0.253424
vt 0.756096 0.503424
vt 0.506096 0.503424
vt 0.189075 0.154363
vt 0.805925 0.154363
vt 0.805925 0.771213
vt 0.189075 0.771213
vt 0.285610 0.284292
vt 0.535610 0.284292
vt 0.535610 0.534292
vt 0.285610 0.534292
vt 0.043200 0.010017
vt 0.971462 0.010017
vt 0.971462 0.938279
vt 0.043200 0.938279
vt 0.017973 0.045422
vt 0.964885 0.045422
vt 0.964885 0.992334
vt 0.017973 0.992334
vn 0.0000 0.0000 1.0000
vn -1.0000 0.0000 0.0000
vn 0.0000 -1.0000 0.0000
vn 1.0000 0.0000 0.0000
vn 0.0000 0.0000 -1.0000
vn 0.0000 1.0000 0.0000
usemtl LightMetal
s off
f 1/1/1 5/2/1 13/3/1 12/4/1
f 4/5/1 3/6/1 7/7/1 8/8/1
f 8/9/2 7/10/2 5/11/2 6/12/2
f 6/13/3 2/14/3 4/15/3 8/16/3
f 2/17/4 1/18/4 3/19/4 4/20/4
f 6/21/5 5/22/5 1/23/5 2/24/5
f 7/25/1 3/26/1 10/27/1 11/28/1
f 5/29/1 7/30/1 11/31/1 13/32/1
f 3/33/1 1/34/1 12/35/1 10/36/1
f 10/37/1 14/38/1 36/39/1 34/40/1
f 14/41/1 10/36/1 19/42/1 21/43/1
f 10/36/1 12/35/1 18/44/1 19/42/1
f 12/45/1 16/46/1 20/47/1 18/48/1
f 16/49/1 14/41/1 21/43/1 20/50/1
f 34/40/1 36/39/1 40/51/1 38/52/1
f 15/53/1 11/54/1 35/55/1 37/56/1
f 14/38/1 15/57/1 37/58/1 36/59/1
f 11/54/1 10/36/1 34/60/1 35/55/1
f 39/61/1 38/62/1 40/63/1 41/64/1
f 36/59/1 37/58/1 41/65/1 40/66/1
f 37/56/1 35/55/1 39/61/1 41/64/1
f 35/55/1 34/60/1 38/62/1 39/61/1
usemtl DarkMetal
f 11/54/1 15/53/1 32/67/1 30/68/1
f 16/69/6 17/70/6 15/71/6 14/72/6
f 12/73/3 13/74/3 26/75/3 27/76/3
f 21/43/1 19/42/1 23/77/1 25/78/1
f 23/77/4 22/79/4 24/80/4 25/78/4
f 19/42/3 18/44/3 22/79/3 23/77/3
f 18/44/5 20/50/5 24/80/5 22/79/5
f 20/50/6 21/43/6 25/78/6 24/80/6
f 27/81/5 26/82/5 28/83/5 29/84/5
f 16/49/4 12/35/4 27/81/4 29/84/4
f 13/32/2 17/85/2 28/83/2 26/82/2
f 17/86/6 16/87/6 29/88/6 28/89/6
f 31/90/2 30/91/2 32/92/2 33/93/2
f 15/94/6 17/95/6 33/96/6 32/97/6
f 13/32/3 11/31/3 30/91/3 31/90/3
f 17/85/5 13/32/5 31/90/5 33/93/5
f 42/98/2 43/99/2 45/100/2 44/101/2
f 44/101/5 45/100/5 49/102/5 48/103/5
f 48/103/4 49/102/4 47/104/4 46/105/4
f 46/105/1 47/104/1 43/106/1 42/107/1
f 44/108/3 48/103/3 46/105/3 42/109/3
f 49/102/6 45/110/6 43/111/6 47/104/6
usemtl GroundMetal
f 50/112/2 51/113/2 53/114/2 52/115/2
f 52/116/5 53/117/5 57/118/5 56/119/5
f 56/120/4 57/121/4 55/122/4 54/123/4
f 54/124/1 55/125/1 51/126/1 50/127/1
f 52/128/3 56/129/3 54/130/3 50/131/3
f 57/132/6 53/133/6 51/134/6 55/135/6
l 7 9
