# Blender v2.82 (sub 7) OBJ File: 'arriere.blend'
# www.blender.org
mtllib ferry_coqueArriere.mtl
o Arrière_Cylinder.003
v 0.092340 -2.183310 0.715778
v -0.894339 -2.137879 0.715778
v -1.843101 -2.003334 0.715778
v -2.717484 -1.784846 0.715778
v -3.483888 -1.490811 0.715778
v -4.112861 -1.132531 0.715778
v -5.599727 0.640547 0.715778
v 0.854321 -2.137879 0.715778
v 1.803083 -2.003334 0.715778
v 2.677466 -1.784846 0.715778
v 3.443870 -1.490811 0.715778
v 4.072843 -1.132531 0.715778
v 5.559709 0.640547 0.715777
v 0.092340 -2.067335 -0.822075
v -0.894339 -2.035626 -0.822075
v -1.843101 -1.941719 -0.822075
v -2.717484 -1.789222 -0.822074
v -3.483888 -1.583996 -0.822074
v -4.112861 -1.333929 -0.822074
v -5.008424 0.348246 -0.850464
v 0.854321 -2.035626 -0.822075
v 1.803083 -1.941719 -0.822075
v 2.677466 -1.789222 -0.822075
v 3.443870 -1.583996 -0.822075
v 4.072843 -1.333929 -0.822075
v 4.969200 0.348246 -0.850465
v -5.008424 0.348246 -0.850464
v -5.599727 0.640548 0.715778
v 5.559709 0.640548 0.715777
v 4.969200 0.348246 -0.850465
v -8.841723 4.992443 0.715778
v 8.879312 4.992443 0.715777
v -7.179359 3.098388 -0.008823
v 7.213496 3.098388 -0.008824
v -5.245199 0.649598 0.715775
v -6.866198 5.001493 0.715774
v -6.033290 3.104705 -0.008827
v 5.303423 0.649598 0.715774
v 5.007772 0.354563 -0.850469
v 6.963224 5.001493 0.715773
v 6.132042 3.104705 -0.008828
vt 0.843750 0.500000
vt 0.875000 0.500000
vt 0.875000 0.500000
vt 0.843750 0.500000
vt 0.937500 0.500000
vt 0.968750 0.500000
vt 0.968750 0.500000
vt 0.937500 0.500000
vt 0.906250 0.500000
vt 0.906250 0.500000
vt 1.000000 0.500000
vt 1.000000 0.500000
vt 0.937500 0.500000
vt 0.937500 0.500000
vt 0.968750 0.500000
vt 0.968750 0.500000
vt 0.812500 0.500000
vt 0.843750 0.500000
vt 0.843750 0.500000
vt 0.812500 0.500000
vt 0.875000 0.500000
vt 0.875000 0.500000
vt 0.906250 0.500000
vt 0.906250 0.500000
vt 0.843750 0.500000
vt 0.937500 0.500000
vt 0.875000 0.500000
vt 0.812500 0.500000
vt 0.968750 0.500000
vt 0.906250 0.500000
vt 0.812500 0.500000
vt 0.937500 0.500000
vt 0.875000 0.500000
vt 1.000000 0.500000
vt 0.968750 0.500000
vt 0.906250 0.500000
vt 0.843750 0.500000
vt 0.812500 0.500000
vt 0.812500 0.500000
vt 0.812500 0.500000
vt 0.812500 0.500000
vt 0.000000 0.000000
vt 0.000000 0.000000
vt 0.000000 0.000000
vt 0.000000 0.000000
vt 0.000000 0.000000
vt 0.000000 0.000000
vt 0.000000 0.000000
vt 0.000000 0.000000
vt 0.000000 0.000000
vt 0.000000 0.000000
vt 0.812500 0.500000
vt 0.812500 0.500000
vt 0.812500 0.500000
vt 0.812500 0.500000
vt 0.000000 0.000000
vt 0.000000 0.000000
vt 0.828125 0.500000
vt 0.828125 0.500000
vt 0.828125 0.500000
vt 0.828125 0.500000
vt 0.000000 0.000000
vt 0.000000 0.000000
vt 0.000000 0.000000
vn 0.4338 -0.8969 0.0859
vn 0.1194 0.9914 0.0528
vn 0.3096 -0.9504 0.0301
vn 0.0390 0.9967 0.0707
vn 0.2075 -0.9781 -0.0182
vn 0.1194 -0.9914 -0.0528
vn 0.8212 0.5668 0.0663
vn 0.4338 0.8969 -0.0859
vn 0.0504 -0.9962 -0.0707
vn 0.3096 0.9504 -0.0301
vn 0.0021 -0.0054 -1.0000
vn 0.0009 -0.0096 -1.0000
vn 0.0050 0.0186 0.9998
vn -0.0000 -0.0169 -0.9999
vn 0.0004 0.0126 0.9999
vn 0.0014 -0.0082 -1.0000
vn 0.0085 0.0214 0.9997
vn 0.0004 -0.0108 -0.9999
vn 0.0014 0.0144 0.9999
vn 0.0018 -0.0068 -1.0000
vn 0.4961 0.0000 0.8682
vn 0.0028 0.0163 0.9999
vn 0.2075 0.9781 0.0182
vn 0.8211 -0.5669 -0.0660
vn 0.0000 0.0000 1.0000
vn 0.0000 0.0000 -1.0000
vn 0.7873 0.5731 0.2276
vn 0.0018 -0.3561 0.9345
vn 0.0018 0.3560 -0.9345
vn 0.7817 -0.5876 -0.2091
vn 0.0016 -0.2915 0.9566
vn 0.0035 0.2907 -0.9568
vn -0.0250 0.9810 -0.1925
vn -0.9248 -0.3445 -0.1613
vn -0.9420 -0.3259 -0.0797
vn -0.9255 0.3530 0.1376
vn -0.9271 0.3514 0.1302
vn 0.0000 -0.9820 0.1889
usemtl Radar.003
s off
f 12/1/1 11/2/1 24/3/1 25/4/1
f 3/5/2 2/6/2 15/7/2 16/8/2
f 11/2/3 10/9/3 23/10/3 24/3/3
f 2/6/4 1/11/4 14/12/4 15/7/4
f 10/9/5 9/13/5 22/14/5 23/10/5
f 9/13/6 8/15/6 21/16/6 22/14/6
f 7/17/7 6/18/7 19/19/7 20/20/7
f 6/18/8 5/21/8 18/22/8 19/19/8
f 8/15/9 1/11/9 14/12/9 21/16/9
f 5/21/10 4/23/10 17/24/10 18/22/10
f 25/4/11 24/3/11 27/25/11
f 22/14/12 21/16/12 27/26/12
f 18/22/13 17/24/13 27/27/13
f 26/28/14 25/4/14 27/25/14
f 15/7/15 14/12/15 27/29/15
f 23/10/16 22/14/16 27/30/16
f 19/19/17 18/22/17 27/25/17
f 21/16/18 14/12/18 27/29/18
f 16/8/19 15/7/19 27/26/19
f 24/3/20 23/10/20 27/27/20
f 20/20/21 19/19/21 27/25/21
f 17/24/22 16/8/22 27/30/22
f 4/23/23 3/5/23 16/8/23 17/24/23
f 13/31/24 12/1/24 25/4/24 26/28/24
f 9/13/25 10/9/25 28/32/25
f 5/21/26 6/18/26 28/33/26
f 1/11/25 8/15/25 28/34/25
f 2/6/26 3/5/26 28/35/26
f 10/9/25 11/2/25 28/36/25
f 3/5/26 4/23/26 28/32/26
f 11/2/25 12/1/25 28/33/25
f 8/15/25 9/13/25 28/35/25
f 4/23/26 5/21/26 28/36/26
f 1/11/26 2/6/26 28/34/26
f 28/33/25 12/1/25 29/37/25
usemtl Coque.003
f 28/38/27 27/39/27 33/40/27 31/41/27
f 36/42/28 31/43/28 33/44/28 37/45/28
f 40/46/29 32/47/29 34/48/29 41/49/29
f 38/50/25 29/51/25 32/47/25 40/46/25
f 29/52/30 30/53/30 34/54/30 32/55/30
f 35/56/26 28/57/26 31/43/26 36/42/26
f 27/39/31 20/58/31 37/59/31 33/40/31
f 30/53/32 39/60/32 41/61/32 34/54/32
f 28/57/33 35/56/33 20/62/33
f 36/42/34 37/45/34 35/56/34
f 35/56/35 37/45/35 27/63/35
f 40/46/36 41/49/36 38/50/36
f 38/50/37 41/49/37 30/64/37
f 35/56/38 27/63/38 30/64/38 38/50/38
l 32 31
