# Blender v2.82 (sub 7) OBJ File: 'interrogationPoint.blend'
# www.blender.org
mtllib interrogationPoint.mtl
o InterrogationPoint_?
v -0.030626 -0.229679 0.000000
v -0.038739 -0.230229 0.000000
v -0.046529 -0.231832 0.000000
v -0.053923 -0.234413 0.000000
v -0.060848 -0.237901 0.000000
v -0.067232 -0.242222 0.000000
v -0.073001 -0.247304 0.000000
v -0.078083 -0.253073 0.000000
v -0.082404 -0.259457 0.000000
v -0.085892 -0.266382 0.000000
v -0.088473 -0.273776 0.000000
v -0.090076 -0.281566 0.000000
v -0.090626 -0.289679 0.000000
v -0.090076 -0.297792 0.000000
v -0.088473 -0.305582 0.000000
v -0.085892 -0.312976 0.000000
v -0.082404 -0.319901 0.000000
v -0.078083 -0.326285 0.000000
v -0.073001 -0.332054 0.000000
v -0.067232 -0.337136 0.000000
v -0.060848 -0.341457 -0.000000
v -0.053923 -0.344945 -0.000000
v -0.046529 -0.347526 -0.000000
v -0.038739 -0.349129 -0.000000
v -0.030626 -0.349679 -0.000000
v -0.022513 -0.349129 -0.000000
v -0.014723 -0.347526 -0.000000
v -0.007329 -0.344945 -0.000000
v -0.000404 -0.341457 -0.000000
v 0.005980 -0.337136 0.000000
v 0.011749 -0.332054 0.000000
v 0.016831 -0.326285 0.000000
v 0.021152 -0.319901 0.000000
v 0.024640 -0.312976 0.000000
v 0.027221 -0.305582 0.000000
v 0.028824 -0.297792 0.000000
v 0.029374 -0.289679 0.000000
v 0.028824 -0.281566 0.000000
v 0.027221 -0.273776 0.000000
v 0.024640 -0.266382 0.000000
v 0.021152 -0.259457 0.000000
v 0.016831 -0.253073 0.000000
v 0.011749 -0.247304 0.000000
v 0.005980 -0.242222 0.000000
v -0.000404 -0.237901 0.000000
v -0.007329 -0.234413 0.000000
v -0.014723 -0.231832 0.000000
v -0.022513 -0.230229 0.000000
v -0.102626 0.254321 0.000000
v -0.099831 0.254859 0.000000
v -0.096936 0.255460 0.000000
v -0.093923 0.256102 0.000000
v -0.090774 0.256765 0.000000
v -0.087473 0.257429 0.000000
v -0.084001 0.258071 0.000000
v -0.080342 0.258672 0.000000
v -0.076478 0.259210 0.000000
v -0.072392 0.259665 0.000000
v -0.068066 0.260015 0.000000
v -0.063483 0.260241 0.000000
v -0.058626 0.260321 0.000000
v -0.048925 0.259767 0.000000
v -0.039848 0.258136 0.000000
v -0.031439 0.255477 0.000000
v -0.023737 0.251839 0.000000
v -0.016786 0.247271 0.000000
v -0.010626 0.241821 0.000000
v -0.005300 0.235537 0.000000
v -0.000848 0.228469 0.000000
v 0.002686 0.220665 0.000000
v 0.005263 0.212173 0.000000
v 0.006839 0.203042 0.000000
v 0.007374 0.193321 0.000000
v 0.005170 0.170976 0.000000
v -0.000922 0.149307 0.000000
v -0.010126 0.128118 0.000000
v -0.021663 0.107210 0.000000
v -0.034756 0.086385 0.000000
v -0.048626 0.065446 0.000000
v -0.062496 0.044194 0.000000
v -0.075589 0.022432 0.000000
v -0.087126 -0.000038 0.000000
v -0.096330 -0.023415 0.000000
v -0.102422 -0.047896 0.000000
v -0.104626 -0.073679 0.000000
v -0.104267 -0.084541 0.000000
v -0.103172 -0.094660 0.000000
v -0.101314 -0.104085 0.000000
v -0.098663 -0.112864 0.000000
v -0.095193 -0.121046 0.000000
v -0.090876 -0.128679 0.000000
v -0.085684 -0.135812 0.000000
v -0.079589 -0.142494 0.000000
v -0.072564 -0.148773 0.000000
v -0.064580 -0.154698 0.000000
v -0.055610 -0.160317 0.000000
v -0.045626 -0.165679 0.000000
v -0.045596 -0.139607 0.000000
v -0.039302 -0.112850 0.000000
v -0.027939 -0.085351 0.000000
v -0.012700 -0.057049 0.000000
v 0.005219 -0.027887 0.000000
v 0.024624 0.002196 0.000000
v 0.044321 0.033258 0.000000
v 0.063115 0.065358 0.000000
v 0.079811 0.098555 0.000000
v 0.093217 0.132909 0.000000
v 0.102136 0.168478 0.000000
v 0.105374 0.205321 0.000000
v 0.104460 0.221427 0.000000
v 0.101642 0.238006 0.000000
v 0.096811 0.254696 0.000000
v 0.089855 0.271136 0.000000
v 0.080663 0.286965 0.000000
v 0.069124 0.301821 0.000000
v 0.055126 0.315344 0.000000
v 0.038559 0.327173 0.000000
v 0.019311 0.336946 0.000000
v -0.002728 0.344302 0.000000
v -0.027670 0.348881 0.000000
v -0.055626 0.350321 0.000000
vt 0.400000 0.000000
vt 0.991667 0.000000
vt 1.000000 0.000000
vt 0.983333 0.000000
vt 0.975000 0.000000
vt 0.966667 0.000000
vt 0.958333 0.000000
vt 0.950000 0.000000
vt 0.433333 0.000000
vt 0.441667 0.000000
vt 0.450000 0.000000
vt 0.941667 0.000000
vt 0.458333 0.000000
vt 0.466667 0.000000
vt 0.475000 0.000000
vt 0.483333 0.000000
vt 0.933333 0.000000
vt 0.491667 0.000000
vt 0.500000 0.000000
vt 0.925000 0.000000
vt 0.508333 0.000000
vt 0.516667 0.000000
vt 0.525000 0.000000
vt 0.425000 0.000000
vt 0.416667 0.000000
vt 0.533333 0.000000
vt 0.408333 0.000000
vt 0.916667 0.000000
vt 0.541667 0.000000
vt 0.550000 0.000000
vt 0.558333 0.000000
vt 0.908333 0.000000
vt 0.566667 0.000000
vt 0.575000 0.000000
vt 0.900000 0.000000
vt 0.583333 0.000000
vt 0.591667 0.000000
vt 0.891667 0.000000
vt 0.600000 0.000000
vt 0.608333 0.000000
vt 0.616667 0.000000
vt 0.883333 0.000000
vt 0.625000 0.000000
vt 0.875000 0.000000
vt 0.633333 0.000000
vt 0.641667 0.000000
vt 0.866667 0.000000
vt 0.650000 0.000000
vt 0.658333 0.000000
vt 0.858333 0.000000
vt 0.666667 0.000000
vt 0.850000 0.000000
vt 0.675000 0.000000
vt 0.841667 0.000000
vt 0.683333 0.000000
vt 0.691667 0.000000
vt 0.833333 0.000000
vt 0.700000 0.000000
vt 0.825000 0.000000
vt 0.708333 0.000000
vt 0.716667 0.000000
vt 0.816667 0.000000
vt 0.725000 0.000000
vt 0.733333 0.000000
vt 0.808333 0.000000
vt 0.741667 0.000000
vt 0.750000 0.000000
vt 0.758333 0.000000
vt 0.766667 0.000000
vt 0.800000 0.000000
vt 0.775000 0.000000
vt 0.783333 0.000000
vt 0.791667 0.000000
vt 0.008333 0.000000
vt 0.391667 0.000000
vt 0.000000 0.000000
vt 0.383333 0.000000
vt 0.016667 0.000000
vt 0.375000 0.000000
vt 0.025000 0.000000
vt 0.366667 0.000000
vt 0.033333 0.000000
vt 0.358333 0.000000
vt 0.041667 0.000000
vt 0.350000 0.000000
vt 0.050000 0.000000
vt 0.341667 0.000000
vt 0.058333 0.000000
vt 0.333333 0.000000
vt 0.066667 0.000000
vt 0.325000 0.000000
vt 0.075000 0.000000
vt 0.316667 0.000000
vt 0.083333 0.000000
vt 0.308333 0.000000
vt 0.091667 0.000000
vt 0.300000 0.000000
vt 0.100000 0.000000
vt 0.108333 0.000000
vt 0.291667 0.000000
vt 0.283333 0.000000
vt 0.116667 0.000000
vt 0.275000 0.000000
vt 0.125000 0.000000
vt 0.266667 0.000000
vt 0.133333 0.000000
vt 0.258333 0.000000
vt 0.141667 0.000000
vt 0.250000 0.000000
vt 0.150000 0.000000
vt 0.241667 0.000000
vt 0.158333 0.000000
vt 0.233333 0.000000
vt 0.166667 0.000000
vt 0.225000 0.000000
vt 0.175000 0.000000
vt 0.216667 0.000000
vt 0.183333 0.000000
vt 0.208333 0.000000
vt 0.191667 0.000000
vt 0.200000 0.000000
vn -0.0000 -0.0000 1.0000
usemtl Red
s off
f 49/1/1 120/2/1 121/3/1
f 49/1/1 119/4/1 120/2/1
f 49/1/1 118/5/1 119/4/1
f 49/1/1 117/6/1 118/5/1
f 49/1/1 116/7/1 117/6/1
f 49/1/1 115/8/1 116/7/1
f 49/1/1 53/9/1 115/8/1
f 53/9/1 54/10/1 115/8/1
f 54/10/1 55/11/1 115/8/1
f 55/11/1 114/12/1 115/8/1
f 55/11/1 56/13/1 114/12/1
f 56/13/1 57/14/1 114/12/1
f 57/14/1 58/15/1 114/12/1
f 58/15/1 59/16/1 114/12/1
f 59/16/1 113/17/1 114/12/1
f 59/16/1 60/18/1 113/17/1
f 60/18/1 61/19/1 113/17/1
f 61/19/1 112/20/1 113/17/1
f 62/21/1 112/20/1 61/19/1
f 63/22/1 112/20/1 62/21/1
f 64/23/1 112/20/1 63/22/1
f 49/1/1 52/24/1 53/9/1
f 49/1/1 51/25/1 52/24/1
f 65/26/1 112/20/1 64/23/1
f 49/1/1 50/27/1 51/25/1
f 65/26/1 111/28/1 112/20/1
f 66/29/1 111/28/1 65/26/1
f 67/30/1 111/28/1 66/29/1
f 68/31/1 111/28/1 67/30/1
f 68/31/1 110/32/1 111/28/1
f 69/33/1 110/32/1 68/31/1
f 70/34/1 110/32/1 69/33/1
f 70/34/1 109/35/1 110/32/1
f 71/36/1 109/35/1 70/34/1
f 72/37/1 109/35/1 71/36/1
f 72/37/1 108/38/1 109/35/1
f 73/39/1 108/38/1 72/37/1
f 74/40/1 108/38/1 73/39/1
f 75/41/1 108/38/1 74/40/1
f 75/41/1 107/42/1 108/38/1
f 76/43/1 107/42/1 75/41/1
f 76/43/1 106/44/1 107/42/1
f 77/45/1 106/44/1 76/43/1
f 78/46/1 106/44/1 77/45/1
f 78/46/1 105/47/1 106/44/1
f 79/48/1 105/47/1 78/46/1
f 80/49/1 105/47/1 79/48/1
f 80/49/1 104/50/1 105/47/1
f 81/51/1 104/50/1 80/49/1
f 81/51/1 103/52/1 104/50/1
f 82/53/1 103/52/1 81/51/1
f 82/53/1 102/54/1 103/52/1
f 83/55/1 102/54/1 82/53/1
f 84/56/1 102/54/1 83/55/1
f 84/56/1 101/57/1 102/54/1
f 85/58/1 101/57/1 84/56/1
f 85/58/1 100/59/1 101/57/1
f 86/60/1 100/59/1 85/58/1
f 87/61/1 100/59/1 86/60/1
f 87/61/1 99/62/1 100/59/1
f 88/63/1 99/62/1 87/61/1
f 89/64/1 99/62/1 88/63/1
f 89/64/1 98/65/1 99/62/1
f 90/66/1 98/65/1 89/64/1
f 91/67/1 98/65/1 90/66/1
f 92/68/1 98/65/1 91/67/1
f 93/69/1 98/65/1 92/68/1
f 93/69/1 97/70/1 98/65/1
f 94/71/1 97/70/1 93/69/1
f 95/72/1 97/70/1 94/71/1
f 96/73/1 97/70/1 95/72/1
f 2/74/1 48/75/1 1/76/1
f 2/74/1 47/77/1 48/75/1
f 3/78/1 47/77/1 2/74/1
f 3/78/1 46/79/1 47/77/1
f 4/80/1 46/79/1 3/78/1
f 4/80/1 45/81/1 46/79/1
f 5/82/1 45/81/1 4/80/1
f 5/82/1 44/83/1 45/81/1
f 6/84/1 44/83/1 5/82/1
f 6/84/1 43/85/1 44/83/1
f 7/86/1 43/85/1 6/84/1
f 7/86/1 42/87/1 43/85/1
f 8/88/1 42/87/1 7/86/1
f 8/88/1 41/89/1 42/87/1
f 9/90/1 41/89/1 8/88/1
f 9/90/1 40/91/1 41/89/1
f 10/92/1 40/91/1 9/90/1
f 10/92/1 39/93/1 40/91/1
f 11/94/1 39/93/1 10/92/1
f 11/94/1 38/95/1 39/93/1
f 12/96/1 38/95/1 11/94/1
f 12/96/1 37/97/1 38/95/1
f 13/98/1 37/97/1 12/96/1
f 14/99/1 37/97/1 13/98/1
f 14/99/1 36/100/1 37/97/1
f 14/99/1 35/101/1 36/100/1
f 15/102/1 35/101/1 14/99/1
f 15/102/1 34/103/1 35/101/1
f 16/104/1 34/103/1 15/102/1
f 16/104/1 33/105/1 34/103/1
f 17/106/1 33/105/1 16/104/1
f 17/106/1 32/107/1 33/105/1
f 18/108/1 32/107/1 17/106/1
f 18/108/1 31/109/1 32/107/1
f 19/110/1 31/109/1 18/108/1
f 19/110/1 30/111/1 31/109/1
f 20/112/1 30/111/1 19/110/1
f 20/112/1 29/113/1 30/111/1
f 21/114/1 29/113/1 20/112/1
f 21/114/1 28/115/1 29/113/1
f 22/116/1 28/115/1 21/114/1
f 22/116/1 27/117/1 28/115/1
f 23/118/1 27/117/1 22/116/1
f 23/118/1 26/119/1 27/117/1
f 24/120/1 26/119/1 23/118/1
f 24/120/1 25/121/1 26/119/1
