# Blender v2.82 (sub 7) OBJ File: 'lift_gardeFou.blend'
# www.blender.org
mtllib lift_gardeFou.mtl
o Cube.002_Cube.012
v 0.649028 -1.000000 6.122500
v 0.649028 1.000000 6.122500
v 0.447701 -1.000000 6.122500
v 0.447701 1.000000 6.122500
v 0.649027 -1.000000 -6.255250
v 0.649027 1.000000 -6.255250
v 0.447700 -1.000000 -6.255250
v 0.447700 1.000000 -6.255250
v 0.586835 -1.000000 6.086814
v 0.586835 1.000000 6.086814
v 0.586835 -1.000000 6.288142
v 0.586835 1.000000 6.288142
v -0.424473 -1.000000 6.086815
v -0.424473 1.000000 6.086815
v -0.424473 -1.000000 6.288142
v -0.424473 1.000000 6.288142
v 0.568736 -1.000000 -6.221767
v 0.568736 1.000000 -6.221767
v 0.568736 -1.000000 -6.020440
v 0.568736 1.000000 -6.020440
v -0.529729 -1.000000 -6.221767
v -0.529729 1.000000 -6.221767
v -0.529729 -1.000000 -6.020440
v -0.529729 1.000000 -6.020440
vt 0.375000 0.000000
vt 0.625000 0.000000
vt 0.625000 0.250000
vt 0.375000 0.250000
vt 0.625000 0.500000
vt 0.375000 0.500000
vt 0.625000 0.750000
vt 0.375000 0.750000
vt 0.625000 1.000000
vt 0.375000 1.000000
vt 0.125000 0.500000
vt 0.125000 0.750000
vt 0.875000 0.500000
vt 0.875000 0.750000
vt 0.375000 0.000000
vt 0.625000 0.000000
vt 0.625000 0.250000
vt 0.375000 0.250000
vt 0.625000 0.500000
vt 0.375000 0.500000
vt 0.625000 0.750000
vt 0.375000 0.750000
vt 0.625000 1.000000
vt 0.375000 1.000000
vt 0.125000 0.500000
vt 0.125000 0.750000
vt 0.875000 0.500000
vt 0.875000 0.750000
vt 0.375000 0.000000
vt 0.625000 0.000000
vt 0.625000 0.250000
vt 0.375000 0.250000
vt 0.625000 0.500000
vt 0.375000 0.500000
vt 0.625000 0.750000
vt 0.375000 0.750000
vt 0.625000 1.000000
vt 0.375000 1.000000
vt 0.125000 0.500000
vt 0.125000 0.750000
vt 0.875000 0.500000
vt 0.875000 0.750000
vn 0.0000 0.0000 1.0000
vn -1.0000 0.0000 0.0000
vn 0.0000 0.0000 -1.0000
vn 1.0000 0.0000 -0.0000
vn 0.0000 -1.0000 0.0000
vn 0.0000 1.0000 0.0000
usemtl Material.001
s off
f 1/1/1 2/2/1 4/3/1 3/4/1
f 3/4/2 4/3/2 8/5/2 7/6/2
f 7/6/3 8/5/3 6/7/3 5/8/3
f 5/8/4 6/7/4 2/9/4 1/10/4
f 3/11/5 7/6/5 5/8/5 1/12/5
f 8/5/6 4/13/6 2/14/6 6/7/6
f 9/15/4 10/16/4 12/17/4 11/18/4
f 11/18/1 12/17/1 16/19/1 15/20/1
f 15/20/2 16/19/2 14/21/2 13/22/2
f 13/22/3 14/21/3 10/23/3 9/24/3
f 11/25/5 15/20/5 13/22/5 9/26/5
f 16/19/6 12/27/6 10/28/6 14/21/6
f 17/29/4 18/30/4 20/31/4 19/32/4
f 19/32/1 20/31/1 24/33/1 23/34/1
f 23/34/2 24/33/2 22/35/2 21/36/2
f 21/36/3 22/35/3 18/37/3 17/38/3
f 19/39/5 23/34/5 21/36/5 17/40/5
f 24/33/6 20/41/6 18/42/6 22/35/6
